<svg xmlns="http://www.w3.org/2000/svg" width="262.52728271484375" height="195.48446655273438" viewBox="-135.41917419433594 -15.506345748901367 262.52728271484375 195.48446655273438"><title>Neo4j Graph Visualization</title><desc>Created using Neo4j (http://www.neo4j.com/)</desc><g class="layer relationships"><g class="relationship" transform="translate(-25.24069023685 38.413960278688776) rotate(414.64218346639245)"><path class="outline" fill="#A5ABB6" stroke="none" d="M 25 0.5 L 54.28428488173577 0.5 L 54.28428488173577 -0.5 L 25 -0.5 Z M 76.73740988173577 0.5 L 106.02169476347154 0.5 L 106.02169476347154 3.5 L 113.02169476347154 0 L 106.02169476347154 -3.5 L 106.02169476347154 -0.5 L 76.73740988173577 -0.5 Z"/><text text-anchor="middle" pointer-events="none" font-size="8px" fill="#000000" x="65.51084738173577" y="3" font-family="sans-serif">is_in</text></g><g class="relationship" transform="translate(-25.24069023685 38.413960278688776) rotate(348.57820818056007)"><path class="outline" fill="#A5ABB6" stroke="none" d="M 25 0.5 L 43.74665169270423 0.5 L 43.74665169270423 -0.5 L 25 -0.5 Z M 75.09430794270423 0.5 L 93.84095963540847 0.5 L 93.84095963540847 3.5 L 100.84095963540847 0 L 93.84095963540847 -3.5 L 93.84095963540847 -0.5 L 75.09430794270423 -0.5 Z"/><text text-anchor="middle" pointer-events="none" font-size="8px" fill="#000000" x="59.42047981770423" y="3" font-family="sans-serif">causes</text></g><g class="relationship" transform="translate(-25.24069023685 38.413960278688776) rotate(494.4960028805908)"><path class="outline" fill="#A5ABB6" stroke="none" d="M 25 0.5 L 44.9643013453351 0.5 L 44.9643013453351 -0.5 L 25 -0.5 Z M 63.8627388453351 0.5 L 83.8270401906702 0.5 L 83.8270401906702 3.5 L 90.8270401906702 0 L 83.8270401906702 -3.5 L 83.8270401906702 -0.5 L 63.8627388453351 -0.5 Z"/><text text-anchor="middle" pointer-events="none" font-size="8px" fill="#000000" x="54.4135200953351" y="3" transform="rotate(180 54.4135200953351 0)" font-family="sans-serif">has</text></g></g><g class="layer nodes"><g class="node" transform="translate(-25.24069023685,38.413960278688776)"><circle class="outline" cx="0" cy="0" r="25" fill="#F79767" stroke="#f36924" stroke-width="2px"/><text text-anchor="middle" pointer-events="none" font-family="sans-serif" dy="1.5625" font-size="25" fill="#FFFFFF"/><text text-anchor="middle" pointer-events="none" y="5" font-size="10px" fill="#FFFFFF" font-family="sans-serif"> CTNNB1</text></g><g class="node" transform="translate(54.62982629334488,150.97811449565418)"><circle class="outline" cx="0" cy="0" r="25" fill="#F16667" stroke="#eb2728" stroke-width="2px"/><text text-anchor="middle" pointer-events="none" font-family="sans-serif" dy="1.5625" font-size="25" fill="#FFFFFF"/><text text-anchor="middle" pointer-events="none" y="5" font-size="10px" fill="#FFFFFF" font-family="sans-serif"> 05166</text></g><g class="node" transform="translate(98.1081058383111,13.493654727415457)"><circle class="outline" cx="0" cy="0" r="25" fill="#57C7E3" stroke="#23b3d7" stroke-width="2px"/><text text-anchor="middle" pointer-events="none" font-family="sans-serif" dy="1.5625" font-size="25" fill="#FFFFFF"/><text text-anchor="middle" pointer-events="none" font-family="sans-serif" dy="1.5625" font-size="25" fill="#FFFFFF"/><text text-anchor="middle" pointer-events="none" font-family="sans-serif" dy="1.5625" font-size="25" fill="#FFFFFF"/><text text-anchor="middle" pointer-events="none" y="-5" font-size="10px" fill="#FFFFFF" font-family="sans-serif"> adrenal</text><text text-anchor="middle" pointer-events="none" y="5" font-size="10px" fill="#FFFFFF" font-family="sans-serif"> cortex</text><text text-anchor="middle" pointer-events="none" y="15" font-size="10px" fill="#FFFFFF" font-family="sans-serif"> carcin…</text></g><g class="node" transform="translate(-106.41917219535722,121.03331216578269)"><circle class="outline" cx="0" cy="0" r="25" fill="#D9C8AE" stroke="#c0a378" stroke-width="2px"/><text text-anchor="middle" pointer-events="none" font-family="sans-serif" dy="1.5625" font-size="25" fill="#604A0E"/><text text-anchor="middle" pointer-events="none" y="5" font-size="10px" fill="#604A0E" font-family="sans-serif"> 1388277…</text></g></g></svg>