<svg xmlns="http://www.w3.org/2000/svg" width="879.0843505859375" height="424.113525390625" viewBox="-289.1131286621094 -167.1766357421875 879.0843505859375 424.113525390625"><title>Neo4j Graph Visualization</title><desc>Created using Neo4j (http://www.neo4j.com/)</desc><g class="layer relationships"><g class="relationship" transform="translate(-122.47334386626125 40.09829874223311) rotate(511.0987327319001)"><path class="outline" fill="#A5ABB6" stroke="none" d="M 25 0.5 L 55.712052097808225 0.5 L 55.712052097808225 -0.5 L 25 -0.5 Z M 87.05970834780823 0.5 L 117.77176044561645 0.5 L 117.77176044561645 3.5 L 124.77176044561645 0 L 117.77176044561645 -3.5 L 117.77176044561645 -0.5 L 87.05970834780823 -0.5 Z"/><text text-anchor="middle" pointer-events="none" font-size="8px" fill="#000000" x="71.38588022280823" y="3" transform="rotate(180 71.38588022280823 0)" font-family="sans-serif">causes</text></g><g class="relationship" transform="translate(-120.08761764838214 112.41635979621859) rotate(539.9712918677462)"><path class="outline" fill="#A5ABB6" stroke="none" d="M 25 0.5 L 47.57817458211528 0.5 L 47.57817458211528 -0.5 L 25 -0.5 Z M 78.92583083211528 0.5 L 101.50400541423056 0.5 L 101.50400541423056 3.5 L 108.50400541423056 0 L 101.50400541423056 -3.5 L 101.50400541423056 -0.5 L 78.92583083211528 -0.5 Z"/><text text-anchor="middle" pointer-events="none" font-size="8px" fill="#000000" x="63.25200270711528" y="3" transform="rotate(180 63.25200270711528 0)" font-family="sans-serif">causes</text></g><g class="relationship" transform="translate(-174.45023192816836 219.03347355361407) rotate(233.39646626870052)"><path class="outline" fill="#A5ABB6" stroke="none" d="M 25 0.5 L 47.18938987987707 0.5 L 47.18938987987707 -0.5 L 25 -0.5 Z M 78.53704612987707 0.5 L 100.72643600975414 0.5 L 100.72643600975414 3.5 L 107.72643600975414 0 L 100.72643600975414 -3.5 L 100.72643600975414 -0.5 L 78.53704612987707 -0.5 Z"/><text text-anchor="middle" pointer-events="none" font-size="8px" fill="#000000" x="62.86321800487707" y="3" transform="rotate(180 62.86321800487707 0)" font-family="sans-serif">causes</text></g><g class="relationship" transform="translate(-128.43456685099915 174.61529211939364) rotate(206.40130238669514)"><path class="outline" fill="#A5ABB6" stroke="none" d="M 25 0.5 L 50.69153330945768 0.5 L 50.69153330945768 -0.5 L 25 -0.5 Z M 82.03918955945768 0.5 L 107.73072286891536 0.5 L 107.73072286891536 3.5 L 114.73072286891536 0 L 107.73072286891536 -3.5 L 107.73072286891536 -0.5 L 82.03918955945768 -0.5 Z"/><text text-anchor="middle" pointer-events="none" font-size="8px" fill="#000000" x="66.36536143445768" y="3" transform="rotate(180 66.36536143445768 0)" font-family="sans-serif">causes</text></g><g class="relationship" transform="translate(-182.58893493241789 10.71609113467265) rotate(484.90337660238106)"><path class="outline" fill="#A5ABB6" stroke="none" d="M 25 0.5 L 42.870378708464074 0.5 L 42.870378708464074 -0.5 L 25 -0.5 Z M 74.21803495846407 0.5 L 92.08841366692815 0.5 L 92.08841366692815 3.5 L 99.08841366692815 0 L 92.08841366692815 -3.5 L 92.08841366692815 -0.5 L 74.21803495846407 -0.5 Z"/><text text-anchor="middle" pointer-events="none" font-size="8px" fill="#000000" x="58.544206833464074" y="3" transform="rotate(180 58.544206833464074 0)" font-family="sans-serif">causes</text></g><g class="relationship" transform="translate(-250.17455690518744 227.93689393798175) rotate(268.30472759706595)"><path class="outline" fill="#A5ABB6" stroke="none" d="M 25 0.5 L 38.5782705921799 0.5 L 38.5782705921799 -0.5 L 25 -0.5 Z M 69.9259268421799 0.5 L 83.5041974343598 0.5 L 83.5041974343598 3.5 L 90.5041974343598 0 L 83.5041974343598 -3.5 L 83.5041974343598 -0.5 L 69.9259268421799 -0.5 Z"/><text text-anchor="middle" pointer-events="none" font-size="8px" fill="#000000" x="54.2520987171799" y="3" transform="rotate(180 54.2520987171799 0)" font-family="sans-serif">causes</text></g><g class="relationship" transform="translate(-260.11314181180444 -0.024102467129491892) rotate(446.6825385816674)"><path class="outline" fill="#A5ABB6" stroke="none" d="M 25 0.5 L 37.174275818194474 0.5 L 37.174275818194474 -0.5 L 25 -0.5 Z M 68.52193206819447 0.5 L 80.69620788638895 0.5 L 80.69620788638895 3.5 L 87.69620788638895 0 L 80.69620788638895 -3.5 L 80.69620788638895 -0.5 L 68.52193206819447 -0.5 Z"/><text text-anchor="middle" pointer-events="none" font-size="8px" fill="#000000" x="52.848103943194474" y="3" font-family="sans-serif">causes</text></g><g class="relationship" transform="translate(560.9711666953496 -91.17748844508353) rotate(527.2090471166889)"><path class="outline" fill="#A5ABB6" stroke="none" d="M 25 0.5 L 144.9225078778014 0.5 L 144.9225078778014 -0.5 L 25 -0.5 Z M 167.3756328778014 0.5 L 287.2981407556028 0.5 L 287.2981407556028 3.5 L 294.2981407556028 0 L 287.2981407556028 -3.5 L 287.2981407556028 -0.5 L 167.3756328778014 -0.5 Z"/><text text-anchor="middle" pointer-events="none" font-size="8px" fill="#000000" x="156.1490703778014" y="3" transform="rotate(180 156.1490703778014 0)" font-family="sans-serif">is_in</text></g><g class="relationship" transform="translate(-122.47334386626125 40.09829874223311) rotate(350.75157704702747)"><path class="outline" fill="#A5ABB6" stroke="none" d="M 25 0.5 L 173.75857966983423 0.5 L 173.75857966983423 -0.5 L 25 -0.5 Z M 196.21170466983423 0.5 L 344.97028433966847 0.5 L 344.97028433966847 3.5 L 351.97028433966847 0 L 344.97028433966847 -3.5 L 344.97028433966847 -0.5 L 196.21170466983423 -0.5 Z"/><text text-anchor="middle" pointer-events="none" font-size="8px" fill="#000000" x="184.98514216983423" y="3" font-family="sans-serif">is_in</text></g><g class="relationship" transform="translate(179.57179589734918 70.55591251359557) rotate(307.56546969305265)"><path class="outline" fill="#A5ABB6" stroke="none" d="M 25 0.5 L 42.70213538534737 0.5 L 42.70213538534737 -0.5 L 25 -0.5 Z M 65.15526038534736 0.5 L 82.85739577069474 0.5 L 82.85739577069474 3.5 L 89.85739577069474 0 L 82.85739577069474 -3.5 L 82.85739577069474 -0.5 L 65.15526038534736 -0.5 Z"/><text text-anchor="middle" pointer-events="none" font-size="8px" fill="#000000" x="53.92869788534737" y="3" font-family="sans-serif">is_in</text></g><g class="relationship" transform="translate(268.452233235216 95.68018678898532) rotate(260.78044519705236)"><path class="outline" fill="#A5ABB6" stroke="none" d="M 25 0.5 L 44.11700870336749 0.5 L 44.11700870336749 -0.5 L 25 -0.5 Z M 66.57013370336749 0.5 L 85.68714240673498 0.5 L 85.68714240673498 3.5 L 92.68714240673498 0 L 85.68714240673498 -3.5 L 85.68714240673498 -0.5 L 66.57013370336749 -0.5 Z"/><text text-anchor="middle" pointer-events="none" font-size="8px" fill="#000000" x="55.34357120336749" y="3" transform="rotate(180 55.34357120336749 0)" font-family="sans-serif">is_in</text></g><g class="relationship" transform="translate(159.92166201418627 -78.40336060737414) rotate(392.85646571372183)"><path class="outline" fill="#A5ABB6" stroke="none" d="M 25 0.5 L 38.649336877031956 0.5 L 38.649336877031956 -0.5 L 25 -0.5 Z M 61.102461877031956 0.5 L 74.75179875406391 0.5 L 74.75179875406391 3.5 L 81.75179875406391 0 L 74.75179875406391 -3.5 L 74.75179875406391 -0.5 L 61.102461877031956 -0.5 Z"/><text text-anchor="middle" pointer-events="none" font-size="8px" fill="#000000" x="49.875899377031956" y="3" font-family="sans-serif">is_in</text></g><g class="relationship" transform="translate(560.9711666953496 -91.17748844508353) rotate(479.02212474274836)"><path class="outline" fill="#A5ABB6" stroke="none" d="M 25 0.5 L 77.91942917096276 0.5 L 77.91942917096276 -0.5 L 25 -0.5 Z M 100.37255417096276 0.5 L 153.29198334192552 0.5 L 153.29198334192552 3.5 L 160.29198334192552 0 L 153.29198334192552 -3.5 L 153.29198334192552 -0.5 L 100.37255417096276 -0.5 Z"/><text text-anchor="middle" pointer-events="none" font-size="8px" fill="#000000" x="89.14599167096276" y="3" transform="rotate(180 89.14599167096276 0)" font-family="sans-serif">is_in</text></g><g class="relationship" transform="translate(560.9711666953496 -91.17748844508353) rotate(197.20819406928064)"><path class="outline" fill="#A5ABB6" stroke="none" d="M 25 0.5 L 64.70558582918586 0.5 L 64.70558582918586 -0.5 L 25 -0.5 Z M 87.15871082918586 0.5 L 126.86429665837173 0.5 L 126.86429665837173 3.5 L 133.86429665837173 0 L 126.86429665837173 -3.5 L 126.86429665837173 -0.5 L 87.15871082918586 -0.5 Z"/><text text-anchor="middle" pointer-events="none" font-size="8px" fill="#000000" x="75.93214832918586" y="3" transform="rotate(180 75.93214832918586 0)" font-family="sans-serif">is_in</text></g></g><g class="layer nodes"><g class="node" transform="translate(-122.47334386626125,40.09829874223311)"><circle class="outline" cx="0" cy="0" r="25" fill="#F79767" stroke="#f36924" stroke-width="2px"/><text text-anchor="middle" pointer-events="none" font-family="sans-serif" dy="1.5625" font-size="25" fill="#FFFFFF"/><text text-anchor="middle" pointer-events="none" y="5" font-size="10px" fill="#FFFFFF" font-family="sans-serif"> CTNNB1</text></g><g class="node" transform="translate(-253.59160630435355,112.48325216623326)"><circle class="outline" cx="0" cy="0" r="25" fill="#57C7E3" stroke="#23b3d7" stroke-width="2px"/><text text-anchor="middle" pointer-events="none" font-family="sans-serif" dy="1.5625" font-size="25" fill="#FFFFFF"/><text text-anchor="middle" pointer-events="none" font-family="sans-serif" dy="1.5625" font-size="25" fill="#FFFFFF"/><text text-anchor="middle" pointer-events="none" font-family="sans-serif" dy="1.5625" font-size="25" fill="#FFFFFF"/><text text-anchor="middle" pointer-events="none" y="-5" font-size="10px" fill="#FFFFFF" font-family="sans-serif"> adrenal</text><text text-anchor="middle" pointer-events="none" y="5" font-size="10px" fill="#FFFFFF" font-family="sans-serif"> cortex</text><text text-anchor="middle" pointer-events="none" y="15" font-size="10px" fill="#FFFFFF" font-family="sans-serif"> carcin…</text></g><g class="node" transform="translate(560.9711666953496,-91.17748844508353)"><circle class="outline" cx="0" cy="0" r="25" fill="#F79767" stroke="#f36924" stroke-width="2px"/><text text-anchor="middle" pointer-events="none" font-family="sans-serif" dy="1.5625" font-size="25" fill="#FFFFFF"/><text text-anchor="middle" pointer-events="none" y="5" font-size="10px" fill="#FFFFFF" font-family="sans-serif"> ELK4</text></g><g class="node" transform="translate(179.57179589734918,70.55591251359557)"><circle class="outline" cx="0" cy="0" r="25" fill="#F79767" stroke="#f36924" stroke-width="2px"/><text text-anchor="middle" pointer-events="none" font-family="sans-serif" dy="1.5625" font-size="25" fill="#FFFFFF"/><text text-anchor="middle" pointer-events="none" y="5" font-size="10px" fill="#FFFFFF" font-family="sans-serif"> CDC20</text></g><g class="node" transform="translate(268.452233235216,95.68018678898532)"><circle class="outline" cx="0" cy="0" r="25" fill="#F79767" stroke="#f36924" stroke-width="2px"/><text text-anchor="middle" pointer-events="none" font-family="sans-serif" dy="1.5625" font-size="25" fill="#FFFFFF"/><text text-anchor="middle" pointer-events="none" y="5" font-size="10px" fill="#FFFFFF" font-family="sans-serif"> XPO1</text></g><g class="node" transform="translate(159.92166201418627,-78.40336060737414)"><circle class="outline" cx="0" cy="0" r="25" fill="#F79767" stroke="#f36924" stroke-width="2px"/><text text-anchor="middle" pointer-events="none" font-family="sans-serif" dy="1.5625" font-size="25" fill="#FFFFFF"/><text text-anchor="middle" pointer-events="none" y="5" font-size="10px" fill="#FFFFFF" font-family="sans-serif"> ATF3</text></g><g class="node" transform="translate(-120.08761764838214,112.41635979621859)"><circle class="outline" cx="0" cy="0" r="25" fill="#F79767" stroke="#f36924" stroke-width="2px"/><text text-anchor="middle" pointer-events="none" font-family="sans-serif" dy="1.5625" font-size="25" fill="#FFFFFF"/><text text-anchor="middle" pointer-events="none" y="5" font-size="10px" fill="#FFFFFF" font-family="sans-serif"> MEN1</text></g><g class="node" transform="translate(-174.45023192816836,219.03347355361407)"><circle class="outline" cx="0" cy="0" r="25" fill="#F79767" stroke="#f36924" stroke-width="2px"/><text text-anchor="middle" pointer-events="none" font-family="sans-serif" dy="1.5625" font-size="25" fill="#FFFFFF"/><text text-anchor="middle" pointer-events="none" y="5" font-size="10px" fill="#FFFFFF" font-family="sans-serif"> MYB</text></g><g class="node" transform="translate(-128.43456685099915,174.61529211939364)"><circle class="outline" cx="0" cy="0" r="25" fill="#F79767" stroke="#f36924" stroke-width="2px"/><text text-anchor="middle" pointer-events="none" font-family="sans-serif" dy="1.5625" font-size="25" fill="#FFFFFF"/><text text-anchor="middle" pointer-events="none" y="5" font-size="10px" fill="#FFFFFF" font-family="sans-serif"> NF1</text></g><g class="node" transform="translate(-182.58893493241789,10.71609113467265)"><circle class="outline" cx="0" cy="0" r="25" fill="#F79767" stroke="#f36924" stroke-width="2px"/><text text-anchor="middle" pointer-events="none" font-family="sans-serif" dy="1.5625" font-size="25" fill="#FFFFFF"/><text text-anchor="middle" pointer-events="none" y="5" font-size="10px" fill="#FFFFFF" font-family="sans-serif"> RB1</text></g><g class="node" transform="translate(-250.17455690518744,227.93689393798175)"><circle class="outline" cx="0" cy="0" r="25" fill="#F79767" stroke="#f36924" stroke-width="2px"/><text text-anchor="middle" pointer-events="none" font-family="sans-serif" dy="1.5625" font-size="25" fill="#FFFFFF"/><text text-anchor="middle" pointer-events="none" y="5" font-size="10px" fill="#FFFFFF" font-family="sans-serif"> GRIN2A</text></g><g class="node" transform="translate(-260.11314181180444,-0.024102467129491892)"><circle class="outline" cx="0" cy="0" r="25" fill="#F79767" stroke="#f36924" stroke-width="2px"/><text text-anchor="middle" pointer-events="none" font-family="sans-serif" dy="1.5625" font-size="25" fill="#FFFFFF"/><text text-anchor="middle" pointer-events="none" y="5" font-size="10px" fill="#FFFFFF" font-family="sans-serif"> BRAF</text></g><g class="node" transform="translate(249.59662479888527,-20.48663084134702)"><circle class="outline" cx="0" cy="0" r="25" fill="#F16667" stroke="#eb2728" stroke-width="2px"/><text text-anchor="middle" pointer-events="none" font-family="sans-serif" dy="1.5625" font-size="25" fill="#FFFFFF"/><text text-anchor="middle" pointer-events="none" y="5" font-size="10px" fill="#FFFFFF" font-family="sans-serif"> 05166</text></g><g class="node" transform="translate(471.0772579025269,70.84783134392995)"><circle class="outline" cx="0" cy="0" r="25" fill="#F16667" stroke="#eb2728" stroke-width="2px"/><text text-anchor="middle" pointer-events="none" font-family="sans-serif" dy="1.5625" font-size="25" fill="#FFFFFF"/><text text-anchor="middle" pointer-events="none" y="5" font-size="10px" fill="#FFFFFF" font-family="sans-serif"> 04010</text></g><g class="node" transform="translate(409.21826154494227,-138.1766430244015)"><circle class="outline" cx="0" cy="0" r="25" fill="#F16667" stroke="#eb2728" stroke-width="2px"/><text text-anchor="middle" pointer-events="none" font-family="sans-serif" dy="1.5625" font-size="25" fill="#FFFFFF"/><text text-anchor="middle" pointer-events="none" y="5" font-size="10px" fill="#FFFFFF" font-family="sans-serif"> 05202</text></g></g></svg>