<svg xmlns="http://www.w3.org/2000/svg" width="800.1036987304688" height="440.0993347167969" viewBox="-408.6142272949219 -134.42868041992188 800.1036987304688 440.0993347167969"><title>Neo4j Graph Visualization</title><desc>Created using Neo4j (http://www.neo4j.com/)</desc><g class="layer relationships"><g class="relationship" transform="translate(-122.47334386626125 40.09829874223311) rotate(511.0987327319001)"><path class="outline" fill="#A5ABB6" stroke="none" d="M 25 0.5 L 55.712052097808225 0.5 L 55.712052097808225 -0.5 L 25 -0.5 Z M 87.05970834780823 0.5 L 117.77176044561645 0.5 L 117.77176044561645 3.5 L 124.77176044561645 0 L 117.77176044561645 -3.5 L 117.77176044561645 -0.5 L 87.05970834780823 -0.5 Z"/><text text-anchor="middle" pointer-events="none" font-size="8px" fill="#000000" x="71.38588022280823" y="3" transform="rotate(180 71.38588022280823 0)" font-family="sans-serif">causes</text></g><g class="relationship" transform="translate(-122.47334386626125 40.09829874223311) rotate(368.78230257683447)"><path class="outline" fill="#A5ABB6" stroke="none" d="M 25 0.5 L 134.25134295123746 0.5 L 134.25134295123746 -0.5 L 25 -0.5 Z M 156.70446795123746 0.5 L 265.9558109024749 0.5 L 265.9558109024749 3.5 L 272.9558109024749 0 L 265.9558109024749 -3.5 L 265.9558109024749 -0.5 L 156.70446795123746 -0.5 Z"/><text text-anchor="middle" pointer-events="none" font-size="8px" fill="#000000" x="145.47790545123746" y="3" font-family="sans-serif">is_in</text></g><g class="relationship" transform="translate(48.22908121793296 215.79358992942244) rotate(313.5466848456622)"><path class="outline" fill="#A5ABB6" stroke="none" d="M 25 0.5 L 75.09189907450083 0.5 L 75.09189907450083 -0.5 L 25 -0.5 Z M 97.54502407450083 0.5 L 147.63692314900166 0.5 L 147.63692314900166 3.5 L 154.63692314900166 0 L 147.63692314900166 -3.5 L 147.63692314900166 -0.5 L 97.54502407450083 -0.5 Z"/><text text-anchor="middle" pointer-events="none" font-size="8px" fill="#000000" x="86.31846157450083" y="3" font-family="sans-serif">is_in</text></g><g class="relationship" transform="translate(169.8414692131721 220.2816094455767) rotate(270.91349926982264)"><path class="outline" fill="#A5ABB6" stroke="none" d="M 25 0.5 L 52.62761929263674 0.5 L 52.62761929263674 -0.5 L 25 -0.5 Z M 75.08074429263674 0.5 L 102.70836358527347 0.5 L 102.70836358527347 3.5 L 109.70836358527347 0 L 102.70836358527347 -3.5 L 102.70836358527347 -0.5 L 75.08074429263674 -0.5 Z"/><text text-anchor="middle" pointer-events="none" font-size="8px" fill="#000000" x="63.85418179263674" y="3" font-family="sans-serif">is_in</text></g><g class="relationship" transform="translate(149.3439792488864 276.67064831153334) rotate(276.7586610300814)"><path class="outline" fill="#A5ABB6" stroke="none" d="M 25 0.5 L 81.48216367096087 0.5 L 81.48216367096087 -0.5 L 25 -0.5 Z M 103.93528867096087 0.5 L 160.41745234192175 0.5 L 160.41745234192175 3.5 L 167.41745234192175 0 L 160.41745234192175 -3.5 L 160.41745234192175 -0.5 L 103.93528867096087 -0.5 Z"/><text text-anchor="middle" pointer-events="none" font-size="8px" fill="#000000" x="92.70872617096087" y="3" font-family="sans-serif">is_in</text></g><g class="relationship" transform="translate(92.57855293802355 256.834300871014) rotate(294.8784615569337)"><path class="outline" fill="#A5ABB6" stroke="none" d="M 25 0.5 L 79.65368121416888 0.5 L 79.65368121416888 -0.5 L 25 -0.5 Z M 102.10680621416888 0.5 L 156.76048742833777 0.5 L 156.76048742833777 3.5 L 163.76048742833777 0 L 156.76048742833777 -3.5 L 156.76048742833777 -0.5 L 102.10680621416888 -0.5 Z"/><text text-anchor="middle" pointer-events="none" font-size="8px" fill="#000000" x="90.88024371416888" y="3" font-family="sans-serif">is_in</text></g><g class="relationship" transform="translate(231.5591210482929 203.67737026264672) rotate(243.23094396869158)"><path class="outline" fill="#A5ABB6" stroke="none" d="M 25 0.5 L 51.40422942090406 0.5 L 51.40422942090406 -0.5 L 25 -0.5 Z M 73.85735442090406 0.5 L 100.26158384180812 0.5 L 100.26158384180812 3.5 L 107.26158384180812 0 L 100.26158384180812 -3.5 L 100.26158384180812 -0.5 L 73.85735442090406 -0.5 Z"/><text text-anchor="middle" pointer-events="none" font-size="8px" fill="#000000" x="62.63079192090406" y="3" transform="rotate(180 62.63079192090406 0)" font-family="sans-serif">is_in</text></g><g class="relationship" transform="translate(278.0902675006639 161.5599021925804) rotate(215.60305871090821)"><path class="outline" fill="#A5ABB6" stroke="none" d="M 25 0.5 L 50.520709173029715 0.5 L 50.520709173029715 -0.5 L 25 -0.5 Z M 72.97383417302972 0.5 L 98.49454334605943 0.5 L 98.49454334605943 3.5 L 105.49454334605943 0 L 98.49454334605943 -3.5 L 98.49454334605943 -0.5 L 72.97383417302972 -0.5 Z"/><text text-anchor="middle" pointer-events="none" font-size="8px" fill="#000000" x="61.747271673029715" y="3" transform="rotate(180 61.747271673029715 0)" font-family="sans-serif">is_in</text></g><g class="relationship" transform="translate(210.44641061057953 272.91654143641705) rotate(258.3986033180753)"><path class="outline" fill="#A5ABB6" stroke="none" d="M 25 0.5 L 80.8899366726164 0.5 L 80.8899366726164 -0.5 L 25 -0.5 Z M 103.3430616726164 0.5 L 159.2329983452328 0.5 L 159.2329983452328 3.5 L 166.2329983452328 0 L 159.2329983452328 -3.5 L 159.2329983452328 -0.5 L 103.3430616726164 -0.5 Z"/><text text-anchor="middle" pointer-events="none" font-size="8px" fill="#000000" x="92.1164991726164" y="3" transform="rotate(180 92.1164991726164 0)" font-family="sans-serif">is_in</text></g><g class="relationship" transform="translate(266.769068980614 252.24067939000184) rotate(240.3715708203353)"><path class="outline" fill="#A5ABB6" stroke="none" d="M 25 0.5 L 81.13214503469965 0.5 L 81.13214503469965 -0.5 L 25 -0.5 Z M 103.58527003469965 0.5 L 159.7174150693993 0.5 L 159.7174150693993 3.5 L 166.7174150693993 0 L 159.7174150693993 -3.5 L 159.7174150693993 -0.5 L 103.58527003469965 -0.5 Z"/><text text-anchor="middle" pointer-events="none" font-size="8px" fill="#000000" x="92.35870753469965" y="3" transform="rotate(180 92.35870753469965 0)" font-family="sans-serif">is_in</text></g><g class="relationship" transform="translate(314.4456820074023 215.82837763441674) rotate(222.43447773145817)"><path class="outline" fill="#A5ABB6" stroke="none" d="M 25 0.5 L 81.78226385664402 0.5 L 81.78226385664402 -0.5 L 25 -0.5 Z M 104.23538885664402 0.5 L 161.01765271328804 0.5 L 161.01765271328804 3.5 L 168.01765271328804 0 L 161.01765271328804 -3.5 L 161.01765271328804 -0.5 L 104.23538885664402 -0.5 Z"/><text text-anchor="middle" pointer-events="none" font-size="8px" fill="#000000" x="93.00882635664402" y="3" transform="rotate(180 93.00882635664402 0)" font-family="sans-serif">is_in</text></g><g class="relationship" transform="translate(342.32291891496334 162.71486842538147) rotate(204.36027880381465)"><path class="outline" fill="#A5ABB6" stroke="none" d="M 25 0.5 L 78.76380473893697 0.5 L 78.76380473893697 -0.5 L 25 -0.5 Z M 101.21692973893697 0.5 L 154.98073447787394 0.5 L 154.98073447787394 3.5 L 161.98073447787394 0 L 154.98073447787394 -3.5 L 154.98073447787394 -0.5 L 101.21692973893697 -0.5 Z"/><text text-anchor="middle" pointer-events="none" font-size="8px" fill="#000000" x="89.99036723893697" y="3" transform="rotate(180 89.99036723893697 0)" font-family="sans-serif">is_in</text></g><g class="relationship" transform="translate(301.24652535472785 96.91441701116784) rotate(185.00681478585432)"><path class="outline" fill="#A5ABB6" stroke="none" d="M 25 0.5 L 50.14969167597408 0.5 L 50.14969167597408 -0.5 L 25 -0.5 Z M 72.60281667597408 0.5 L 97.75250835194817 0.5 L 97.75250835194817 3.5 L 104.75250835194817 0 L 97.75250835194817 -3.5 L 97.75250835194817 -0.5 L 72.60281667597408 -0.5 Z"/><text text-anchor="middle" pointer-events="none" font-size="8px" fill="#000000" x="61.37625417597408" y="3" transform="rotate(180 61.37625417597408 0)" font-family="sans-serif">is_in</text></g><g class="relationship" transform="translate(351.2812960755371 47.29668707332526) rotate(527.9437688261808)"><path class="outline" fill="#A5ABB6" stroke="none" d="M 25 0.5 L 76.94144409491612 0.5 L 76.94144409491612 -0.5 L 25 -0.5 Z M 99.39456909491612 0.5 L 151.33601318983224 0.5 L 151.33601318983224 3.5 L 158.33601318983224 0 L 151.33601318983224 -3.5 L 151.33601318983224 -0.5 L 99.39456909491612 -0.5 Z"/><text text-anchor="middle" pointer-events="none" font-size="8px" fill="#000000" x="88.16800659491612" y="3" transform="rotate(180 88.16800659491612 0)" font-family="sans-serif">is_in</text></g><g class="relationship" transform="translate(362.4894299353646 106.20869380789466) rotate(186.17722015979075)"><path class="outline" fill="#A5ABB6" stroke="none" d="M 25 0.5 L 81.07986622059323 0.5 L 81.07986622059323 -0.5 L 25 -0.5 Z M 103.53299122059323 0.5 L 159.61285744118646 0.5 L 159.61285744118646 3.5 L 166.61285744118646 0 L 159.61285744118646 -3.5 L 159.61285744118646 -0.5 L 103.53299122059323 -0.5 Z"/><text text-anchor="middle" pointer-events="none" font-size="8px" fill="#000000" x="92.30642872059323" y="3" transform="rotate(180 92.30642872059323 0)" font-family="sans-serif">is_in</text></g><g class="relationship" transform="translate(335.11443271134607 -10.473869687450732) rotate(509.50623823484466)"><path class="outline" fill="#A5ABB6" stroke="none" d="M 25 0.5 L 79.92834794919072 0.5 L 79.92834794919072 -0.5 L 25 -0.5 Z M 102.38147294919072 0.5 L 157.30982089838145 0.5 L 157.30982089838145 3.5 L 164.30982089838145 0 L 157.30982089838145 -3.5 L 157.30982089838145 -0.5 L 102.38147294919072 -0.5 Z"/><text text-anchor="middle" pointer-events="none" font-size="8px" fill="#000000" x="91.15491044919072" y="3" transform="rotate(180 91.15491044919072 0)" font-family="sans-serif">is_in</text></g><g class="relationship" transform="translate(246.684632455369 -19.6564591374313) rotate(485.36399196155276)"><path class="outline" fill="#A5ABB6" stroke="none" d="M 25 0.5 L 49.80311162256878 0.5 L 49.80311162256878 -0.5 L 25 -0.5 Z M 72.25623662256878 0.5 L 97.05934824513756 0.5 L 97.05934824513756 3.5 L 104.05934824513756 0 L 97.05934824513756 -3.5 L 97.05934824513756 -0.5 L 72.25623662256878 -0.5 Z"/><text text-anchor="middle" pointer-events="none" font-size="8px" fill="#000000" x="61.02967412256878" y="3" transform="rotate(180 61.02967412256878 0)" font-family="sans-serif">is_in</text></g><g class="relationship" transform="translate(296.49863719885195 -56.36250481689928) rotate(491.2546082891613)"><path class="outline" fill="#A5ABB6" stroke="none" d="M 25 0.5 L 79.68376532603827 0.5 L 79.68376532603827 -0.5 L 25 -0.5 Z M 102.13689032603827 0.5 L 156.82065565207654 0.5 L 156.82065565207654 3.5 L 163.82065565207654 0 L 156.82065565207654 -3.5 L 156.82065565207654 -0.5 L 102.13689032603827 -0.5 Z"/><text text-anchor="middle" pointer-events="none" font-size="8px" fill="#000000" x="90.91032782603827" y="3" transform="rotate(180 90.91032782603827 0)" font-family="sans-serif">is_in</text></g><g class="relationship" transform="translate(246.27066380053873 -89.17610166552342) rotate(473.0271037504307)"><path class="outline" fill="#A5ABB6" stroke="none" d="M 25 0.5 L 80.22219691002408 0.5 L 80.22219691002408 -0.5 L 25 -0.5 Z M 102.67532191002408 0.5 L 157.89751882004816 0.5 L 157.89751882004816 3.5 L 164.89751882004816 0 L 157.89751882004816 -3.5 L 157.89751882004816 -0.5 L 102.67532191002408 -0.5 Z"/><text text-anchor="middle" pointer-events="none" font-size="8px" fill="#000000" x="91.44875941002408" y="3" transform="rotate(180 91.44875941002408 0)" font-family="sans-serif">is_in</text></g><g class="relationship" transform="translate(285.1450221672856 29.204439841691798) rotate(513.5127877260445)"><path class="outline" fill="#A5ABB6" stroke="none" d="M 25 0.5 L 48.486634524219895 0.5 L 48.486634524219895 -0.5 L 25 -0.5 Z M 70.9397595242199 0.5 L 94.42639404843979 0.5 L 94.42639404843979 3.5 L 101.42639404843979 0 L 94.42639404843979 -3.5 L 94.42639404843979 -0.5 L 70.9397595242199 -0.5 Z"/><text text-anchor="middle" pointer-events="none" font-size="8px" fill="#000000" x="59.713197024219895" y="3" transform="rotate(180 59.713197024219895 0)" font-family="sans-serif">is_in</text></g><g class="relationship" transform="translate(119.429731343446 -32.59768238102157) rotate(426.0248182175358)"><path class="outline" fill="#A5ABB6" stroke="none" d="M 25 0.5 L 49.94743399489171 0.5 L 49.94743399489171 -0.5 L 25 -0.5 Z M 72.40055899489171 0.5 L 97.34799298978342 0.5 L 97.34799298978342 3.5 L 104.34799298978342 0 L 97.34799298978342 -3.5 L 97.34799298978342 -0.5 L 72.40055899489171 -0.5 Z"/><text text-anchor="middle" pointer-events="none" font-size="8px" fill="#000000" x="61.17399649489171" y="3" font-family="sans-serif">is_in</text></g><g class="relationship" transform="translate(187.3676049654188 -45.44045618617592) rotate(456.69392286794715)"><path class="outline" fill="#A5ABB6" stroke="none" d="M 25 0.5 L 51.2385317827796 0.5 L 51.2385317827796 -0.5 L 25 -0.5 Z M 73.6916567827796 0.5 L 99.9301885655592 0.5 L 99.9301885655592 3.5 L 106.9301885655592 0 L 99.9301885655592 -3.5 L 99.9301885655592 -0.5 L 73.6916567827796 -0.5 Z"/><text text-anchor="middle" pointer-events="none" font-size="8px" fill="#000000" x="62.4650942827796" y="3" transform="rotate(180 62.4650942827796 0)" font-family="sans-serif">is_in</text></g><g class="relationship" transform="translate(188.50812649772175 -105.42867618633) rotate(454.9425493035593)"><path class="outline" fill="#A5ABB6" stroke="none" d="M 25 0.5 L 81.13942815676764 0.5 L 81.13942815676764 -0.5 L 25 -0.5 Z M 103.59255315676764 0.5 L 159.73198131353527 0.5 L 159.73198131353527 3.5 L 166.73198131353527 0 L 159.73198131353527 -3.5 L 159.73198131353527 -0.5 L 103.59255315676764 -0.5 Z"/><text text-anchor="middle" pointer-events="none" font-size="8px" fill="#000000" x="92.36599065676764" y="3" transform="rotate(180 92.36599065676764 0)" font-family="sans-serif">is_in</text></g><g class="relationship" transform="translate(71.90306284993727 23.27721509779495) rotate(391.9062191083836)"><path class="outline" fill="#A5ABB6" stroke="none" d="M 25 0.5 L 44.22287726126592 0.5 L 44.22287726126592 -0.5 L 25 -0.5 Z M 66.67600226126592 0.5 L 85.89887952253184 0.5 L 85.89887952253184 3.5 L 92.89887952253184 0 L 85.89887952253184 -3.5 L 85.89887952253184 -0.5 L 66.67600226126592 -0.5 Z"/><text text-anchor="middle" pointer-events="none" font-size="8px" fill="#000000" x="55.44943976126592" y="3" font-family="sans-serif">is_in</text></g><g class="relationship" transform="translate(129.29795514296362 -95.83131291777688) rotate(436.7583724948033)"><path class="outline" fill="#A5ABB6" stroke="none" d="M 25 0.5 L 78.46190325216465 0.5 L 78.46190325216465 -0.5 L 25 -0.5 Z M 100.91502825216465 0.5 L 154.3769315043293 0.5 L 154.3769315043293 3.5 L 161.3769315043293 0 L 154.3769315043293 -3.5 L 154.3769315043293 -0.5 L 100.91502825216465 -0.5 Z"/><text text-anchor="middle" pointer-events="none" font-size="8px" fill="#000000" x="89.68846575216465" y="3" font-family="sans-serif">is_in</text></g><g class="relationship" transform="translate(72.99331255334494 -75.08536519199681) rotate(418.36187802288674)"><path class="outline" fill="#A5ABB6" stroke="none" d="M 25 0.5 L 79.6355840913866 0.5 L 79.6355840913866 -0.5 L 25 -0.5 Z M 102.0887090913866 0.5 L 156.7242931827732 0.5 L 156.7242931827732 3.5 L 163.7242931827732 0 L 156.7242931827732 -3.5 L 156.7242931827732 -0.5 L 102.0887090913866 -0.5 Z"/><text text-anchor="middle" pointer-events="none" font-size="8px" fill="#000000" x="90.8621465913866" y="3" font-family="sans-serif">is_in</text></g><g class="relationship" transform="translate(15.553880112217822 93.52352705204262) rotate(357.09689719103517)"><path class="outline" fill="#A5ABB6" stroke="none" d="M 25 0.5 L 63.59156490539141 0.5 L 63.59156490539141 -0.5 L 25 -0.5 Z M 86.04468990539141 0.5 L 124.63625481078282 0.5 L 124.63625481078282 3.5 L 131.63625481078282 0 L 124.63625481078282 -3.5 L 124.63625481078282 -0.5 L 86.04468990539141 -0.5 Z"/><text text-anchor="middle" pointer-events="none" font-size="8px" fill="#000000" x="74.81812740539141" y="3" font-family="sans-serif">is_in</text></g><g class="relationship" transform="translate(36.54793358075561 -27.424600834817138) rotate(399.8423310140996)"><path class="outline" fill="#A5ABB6" stroke="none" d="M 25 0.5 L 73.47306234307618 0.5 L 73.47306234307618 -0.5 L 25 -0.5 Z M 95.92618734307618 0.5 L 144.39924968615236 0.5 L 144.39924968615236 3.5 L 151.39924968615236 0 L 144.39924968615236 -3.5 L 144.39924968615236 -0.5 L 95.92618734307618 -0.5 Z"/><text text-anchor="middle" pointer-events="none" font-size="8px" fill="#000000" x="84.69962484307618" y="3" font-family="sans-serif">is_in</text></g><g class="relationship" transform="translate(62.1942742280868 133.20700810706072) rotate(336.5542281149312)"><path class="outline" fill="#A5ABB6" stroke="none" d="M 25 0.5 L 45.11124033624629 0.5 L 45.11124033624629 -0.5 L 25 -0.5 Z M 67.56436533624628 0.5 L 87.67560567249258 0.5 L 87.67560567249258 3.5 L 94.67560567249258 0 L 87.67560567249258 -3.5 L 87.67560567249258 -0.5 L 67.56436533624628 -0.5 Z"/><text text-anchor="middle" pointer-events="none" font-size="8px" fill="#000000" x="56.33780283624629" y="3" font-family="sans-serif">is_in</text></g><g class="relationship" transform="translate(12.810651592918028 33.58899191475512) rotate(378.0914905444588)"><path class="outline" fill="#A5ABB6" stroke="none" d="M 25 0.5 L 69.00205379637667 0.5 L 69.00205379637667 -0.5 L 25 -0.5 Z M 91.45517879637667 0.5 L 135.45723259275334 0.5 L 135.45723259275334 3.5 L 142.45723259275334 0 L 135.45723259275334 -3.5 L 135.45723259275334 -0.5 L 91.45517879637667 -0.5 Z"/><text text-anchor="middle" pointer-events="none" font-size="8px" fill="#000000" x="80.22861629637667" y="3" font-family="sans-serif">is_in</text></g><g class="relationship" transform="translate(12.160610134754103 166.2714178124785) rotate(333.21546311450174)"><path class="outline" fill="#A5ABB6" stroke="none" d="M 25 0.5 L 74.7924040803112 0.5 L 74.7924040803112 -0.5 L 25 -0.5 Z M 97.2455290803112 0.5 L 147.0379331606224 0.5 L 147.0379331606224 3.5 L 154.0379331606224 0 L 147.0379331606224 -3.5 L 147.0379331606224 -0.5 L 97.2455290803112 -0.5 Z"/><text text-anchor="middle" pointer-events="none" font-size="8px" fill="#000000" x="86.0189665803112" y="3" font-family="sans-serif">is_in</text></g><g class="relationship" transform="translate(107.90912306888833 195.8843902057947) rotate(300.156261433155)"><path class="outline" fill="#A5ABB6" stroke="none" d="M 25 0.5 L 49.052384634743795 0.5 L 49.052384634743795 -0.5 L 25 -0.5 Z M 71.50550963474379 0.5 L 95.55789426948759 0.5 L 95.55789426948759 3.5 L 102.55789426948759 0 L 95.55789426948759 -3.5 L 95.55789426948759 -0.5 L 71.50550963474379 -0.5 Z"/><text text-anchor="middle" pointer-events="none" font-size="8px" fill="#000000" x="60.278947134743795" y="3" font-family="sans-serif">is_in</text></g><g class="relationship" transform="translate(-254.26194215073045 245.64885940768755) rotate(270.2884159900144)"><path class="outline" fill="#A5ABB6" stroke="none" d="M 25 0.5 L 47.40981908310246 0.5 L 47.40981908310246 -0.5 L 25 -0.5 Z M 78.75747533310246 0.5 L 101.16729441620492 0.5 L 101.16729441620492 3.5 L 108.16729441620492 0 L 101.16729441620492 -3.5 L 101.16729441620492 -0.5 L 78.75747533310246 -0.5 Z"/><text text-anchor="middle" pointer-events="none" font-size="8px" fill="#000000" x="63.08364720810246" y="3" font-family="sans-serif">causes</text></g><g class="relationship" transform="translate(-367.6631267354557 171.910641133933) rotate(332.482016363621)"><path class="outline" fill="#A5ABB6" stroke="none" d="M 25 0.5 L 45.13776945463886 0.5 L 45.13776945463886 -0.5 L 25 -0.5 Z M 76.48542570463886 0.5 L 96.62319515927771 0.5 L 96.62319515927771 3.5 L 103.62319515927771 0 L 96.62319515927771 -3.5 L 96.62319515927771 -0.5 L 76.48542570463886 -0.5 Z"/><text text-anchor="middle" pointer-events="none" font-size="8px" fill="#000000" x="60.81159757963886" y="3" font-family="sans-serif">causes</text></g><g class="relationship" transform="translate(-321.1157022756026 228.33251464057804) rotate(300.236270310752)"><path class="outline" fill="#A5ABB6" stroke="none" d="M 25 0.5 L 47.871968075403345 0.5 L 47.871968075403345 -0.5 L 25 -0.5 Z M 79.21962432540334 0.5 L 102.09159240080669 0.5 L 102.09159240080669 3.5 L 109.09159240080669 0 L 102.09159240080669 -3.5 L 102.09159240080669 -0.5 L 79.21962432540334 -0.5 Z"/><text text-anchor="middle" pointer-events="none" font-size="8px" fill="#000000" x="63.545796200403345" y="3" font-family="sans-serif">causes</text></g><g class="relationship" transform="translate(-288.29661164765923 -15.288319198162965) rotate(434.8040767786215)"><path class="outline" fill="#A5ABB6" stroke="none" d="M 25 0.5 L 47.02664741106747 0.5 L 47.02664741106747 -0.5 L 25 -0.5 Z M 78.37430366106747 0.5 L 100.40095107213494 0.5 L 100.40095107213494 3.5 L 107.40095107213494 0 L 100.40095107213494 -3.5 L 100.40095107213494 -0.5 L 78.37430366106747 -0.5 Z"/><text text-anchor="middle" pointer-events="none" font-size="8px" fill="#000000" x="62.70047553606747" y="3" font-family="sans-serif">causes</text></g><g class="relationship" transform="translate(-379.61423110440643 94.5767106780767) rotate(368.0870168548626)"><path class="outline" fill="#A5ABB6" stroke="none" d="M 25 0.5 L 44.470390366474106 0.5 L 44.470390366474106 -0.5 L 25 -0.5 Z M 75.8180466164741 0.5 L 95.28843698294821 0.5 L 95.28843698294821 3.5 L 102.28843698294821 0 L 95.28843698294821 -3.5 L 95.28843698294821 -0.5 L 75.8180466164741 -0.5 Z"/><text text-anchor="middle" pointer-events="none" font-size="8px" fill="#000000" x="60.144218491474106" y="3" font-family="sans-serif">causes</text></g><g class="relationship" transform="translate(-349.8371226084538 23.57186547981672) rotate(402.7316799755952)"><path class="outline" fill="#A5ABB6" stroke="none" d="M 25 0.5 L 46.34035753571075 0.5 L 46.34035753571075 -0.5 L 25 -0.5 Z M 77.68801378571075 0.5 L 99.0283713214215 0.5 L 99.0283713214215 3.5 L 106.0283713214215 0 L 99.0283713214215 -3.5 L 99.0283713214215 -0.5 L 77.68801378571075 -0.5 Z"/><text text-anchor="middle" pointer-events="none" font-size="8px" fill="#000000" x="62.01418566071075" y="3" font-family="sans-serif">causes</text></g></g><g class="layer nodes"><g class="node" transform="translate(-122.47334386626125,40.09829874223311)"><circle class="outline" cx="0" cy="0" r="25" fill="#F79767" stroke="#f36924" stroke-width="2px"/><text text-anchor="middle" pointer-events="none" font-family="sans-serif" dy="1.5625" font-size="25" fill="#FFFFFF"/><text text-anchor="middle" pointer-events="none" y="5" font-size="10px" fill="#FFFFFF" font-family="sans-serif"> CTNNB1</text></g><g class="node" transform="translate(171.9891104437617,85.59036675709713)"><circle class="outline" cx="0" cy="0" r="25" fill="#F16667" stroke="#eb2728" stroke-width="2px"/><text text-anchor="middle" pointer-events="none" font-family="sans-serif" dy="1.5625" font-size="25" fill="#FFFFFF"/><text text-anchor="middle" pointer-events="none" y="5" font-size="10px" fill="#FFFFFF" font-family="sans-serif"> 05166</text></g><g class="node" transform="translate(-253.59160630435355,112.48325216623326)"><circle class="outline" cx="0" cy="0" r="25" fill="#57C7E3" stroke="#23b3d7" stroke-width="2px"/><text text-anchor="middle" pointer-events="none" font-family="sans-serif" dy="1.5625" font-size="25" fill="#FFFFFF"/><text text-anchor="middle" pointer-events="none" font-family="sans-serif" dy="1.5625" font-size="25" fill="#FFFFFF"/><text text-anchor="middle" pointer-events="none" font-family="sans-serif" dy="1.5625" font-size="25" fill="#FFFFFF"/><text text-anchor="middle" pointer-events="none" y="-5" font-size="10px" fill="#FFFFFF" font-family="sans-serif"> adrenal</text><text text-anchor="middle" pointer-events="none" y="5" font-size="10px" fill="#FFFFFF" font-family="sans-serif"> cortex</text><text text-anchor="middle" pointer-events="none" y="15" font-size="10px" fill="#FFFFFF" font-family="sans-serif"> carcin…</text></g><g class="node" transform="translate(48.22908121793296,215.79358992942244)"><circle class="outline" cx="0" cy="0" r="25" fill="#F79767" stroke="#f36924" stroke-width="2px"/><text text-anchor="middle" pointer-events="none" font-family="sans-serif" dy="1.5625" font-size="25" fill="#FFFFFF"/><text text-anchor="middle" pointer-events="none" y="5" font-size="10px" fill="#FFFFFF" font-family="sans-serif"> PIK3CD</text></g><g class="node" transform="translate(169.8414692131721,220.2816094455767)"><circle class="outline" cx="0" cy="0" r="25" fill="#F79767" stroke="#f36924" stroke-width="2px"/><text text-anchor="middle" pointer-events="none" font-family="sans-serif" dy="1.5625" font-size="25" fill="#FFFFFF"/><text text-anchor="middle" pointer-events="none" y="5" font-size="10px" fill="#FFFFFF" font-family="sans-serif"> ADCY3</text></g><g class="node" transform="translate(149.3439792488864,276.67064831153334)"><circle class="outline" cx="0" cy="0" r="25" fill="#F79767" stroke="#f36924" stroke-width="2px"/><text text-anchor="middle" pointer-events="none" font-family="sans-serif" dy="1.5625" font-size="25" fill="#FFFFFF"/><text text-anchor="middle" pointer-events="none" y="5" font-size="10px" fill="#FFFFFF" font-family="sans-serif"> PRKACB</text></g><g class="node" transform="translate(92.57855293802355,256.834300871014)"><circle class="outline" cx="0" cy="0" r="25" fill="#F79767" stroke="#f36924" stroke-width="2px"/><text text-anchor="middle" pointer-events="none" font-family="sans-serif" dy="1.5625" font-size="25" fill="#FFFFFF"/><text text-anchor="middle" pointer-events="none" y="5" font-size="10px" fill="#FFFFFF" font-family="sans-serif"> SLC2A1</text></g><g class="node" transform="translate(231.5591210482929,203.67737026264672)"><circle class="outline" cx="0" cy="0" r="25" fill="#F79767" stroke="#f36924" stroke-width="2px"/><text text-anchor="middle" pointer-events="none" font-family="sans-serif" dy="1.5625" font-size="25" fill="#FFFFFF"/><text text-anchor="middle" pointer-events="none" y="5" font-size="10px" fill="#FFFFFF" font-family="sans-serif"> AKT3</text></g><g class="node" transform="translate(278.0902675006639,161.5599021925804)"><circle class="outline" cx="0" cy="0" r="25" fill="#F79767" stroke="#f36924" stroke-width="2px"/><text text-anchor="middle" pointer-events="none" font-family="sans-serif" dy="1.5625" font-size="25" fill="#FFFFFF"/><text text-anchor="middle" pointer-events="none" y="5" font-size="10px" fill="#FFFFFF" font-family="sans-serif"> JAK1</text></g><g class="node" transform="translate(210.44641061057953,272.91654143641705)"><circle class="outline" cx="0" cy="0" r="25" fill="#F79767" stroke="#f36924" stroke-width="2px"/><text text-anchor="middle" pointer-events="none" font-family="sans-serif" dy="1.5625" font-size="25" fill="#FFFFFF"/><text text-anchor="middle" pointer-events="none" y="5" font-size="10px" fill="#FFFFFF" font-family="sans-serif"> PIK3R3</text></g><g class="node" transform="translate(266.769068980614,252.24067939000184)"><circle class="outline" cx="0" cy="0" r="25" fill="#F79767" stroke="#f36924" stroke-width="2px"/><text text-anchor="middle" pointer-events="none" font-family="sans-serif" dy="1.5625" font-size="25" fill="#FFFFFF"/><text text-anchor="middle" pointer-events="none" y="5" font-size="10px" fill="#FFFFFF" font-family="sans-serif"> LCK</text></g><g class="node" transform="translate(314.4456820074023,215.82837763441674)"><circle class="outline" cx="0" cy="0" r="25" fill="#F79767" stroke="#f36924" stroke-width="2px"/><text text-anchor="middle" pointer-events="none" font-family="sans-serif" dy="1.5625" font-size="25" fill="#FFFFFF"/><text text-anchor="middle" pointer-events="none" y="5" font-size="10px" fill="#FFFFFF" font-family="sans-serif"> CREB1</text></g><g class="node" transform="translate(342.32291891496334,162.71486842538147)"><circle class="outline" cx="0" cy="0" r="25" fill="#F79767" stroke="#f36924" stroke-width="2px"/><text text-anchor="middle" pointer-events="none" font-family="sans-serif" dy="1.5625" font-size="25" fill="#FFFFFF"/><text text-anchor="middle" pointer-events="none" y="5" font-size="10px" fill="#FFFFFF" font-family="sans-serif"> KAT2B</text></g><g class="node" transform="translate(301.24652535472785,96.91441701116784)"><circle class="outline" cx="0" cy="0" r="25" fill="#F79767" stroke="#f36924" stroke-width="2px"/><text text-anchor="middle" pointer-events="none" font-family="sans-serif" dy="1.5625" font-size="25" fill="#FFFFFF"/><text text-anchor="middle" pointer-events="none" y="5" font-size="10px" fill="#FFFFFF" font-family="sans-serif"> ATF2</text></g><g class="node" transform="translate(351.2812960755371,47.29668707332526)"><circle class="outline" cx="0" cy="0" r="25" fill="#F79767" stroke="#f36924" stroke-width="2px"/><text text-anchor="middle" pointer-events="none" font-family="sans-serif" dy="1.5625" font-size="25" fill="#FFFFFF"/><text text-anchor="middle" pointer-events="none" y="5" font-size="10px" fill="#FFFFFF" font-family="sans-serif"> WNT10A</text></g><g class="node" transform="translate(362.4894299353646,106.20869380789466)"><circle class="outline" cx="0" cy="0" r="25" fill="#F79767" stroke="#f36924" stroke-width="2px"/><text text-anchor="middle" pointer-events="none" font-family="sans-serif" dy="1.5625" font-size="25" fill="#FFFFFF"/><text text-anchor="middle" pointer-events="none" y="5" font-size="10px" fill="#FFFFFF" font-family="sans-serif"> WNT2B</text></g><g class="node" transform="translate(335.11443271134607,-10.473869687450732)"><circle class="outline" cx="0" cy="0" r="25" fill="#F79767" stroke="#f36924" stroke-width="2px"/><text text-anchor="middle" pointer-events="none" font-family="sans-serif" dy="1.5625" font-size="25" fill="#FFFFFF"/><text text-anchor="middle" pointer-events="none" y="5" font-size="10px" fill="#FFFFFF" font-family="sans-serif"> WNT3A</text></g><g class="node" transform="translate(246.684632455369,-19.6564591374313)"><circle class="outline" cx="0" cy="0" r="25" fill="#F79767" stroke="#f36924" stroke-width="2px"/><text text-anchor="middle" pointer-events="none" font-family="sans-serif" dy="1.5625" font-size="25" fill="#FFFFFF"/><text text-anchor="middle" pointer-events="none" y="5" font-size="10px" fill="#FFFFFF" font-family="sans-serif"> WNT5A</text></g><g class="node" transform="translate(296.49863719885195,-56.36250481689928)"><circle class="outline" cx="0" cy="0" r="25" fill="#F79767" stroke="#f36924" stroke-width="2px"/><text text-anchor="middle" pointer-events="none" font-family="sans-serif" dy="1.5625" font-size="25" fill="#FFFFFF"/><text text-anchor="middle" pointer-events="none" y="5" font-size="10px" fill="#FFFFFF" font-family="sans-serif"> WNT7A</text></g><g class="node" transform="translate(246.27066380053873,-89.17610166552342)"><circle class="outline" cx="0" cy="0" r="25" fill="#F79767" stroke="#f36924" stroke-width="2px"/><text text-anchor="middle" pointer-events="none" font-family="sans-serif" dy="1.5625" font-size="25" fill="#FFFFFF"/><text text-anchor="middle" pointer-events="none" y="5" font-size="10px" fill="#FFFFFF" font-family="sans-serif"> WNT9A</text></g><g class="node" transform="translate(285.1450221672856,29.204439841691798)"><circle class="outline" cx="0" cy="0" r="25" fill="#F79767" stroke="#f36924" stroke-width="2px"/><text text-anchor="middle" pointer-events="none" font-family="sans-serif" dy="1.5625" font-size="25" fill="#FFFFFF"/><text text-anchor="middle" pointer-events="none" y="5" font-size="10px" fill="#FFFFFF" font-family="sans-serif"> DVL1</text></g><g class="node" transform="translate(119.429731343446,-32.59768238102157)"><circle class="outline" cx="0" cy="0" r="25" fill="#F79767" stroke="#f36924" stroke-width="2px"/><text text-anchor="middle" pointer-events="none" font-family="sans-serif" dy="1.5625" font-size="25" fill="#FFFFFF"/><text text-anchor="middle" pointer-events="none" y="5" font-size="10px" fill="#FFFFFF" font-family="sans-serif"> FZD7</text></g><g class="node" transform="translate(187.3676049654188,-45.44045618617592)"><circle class="outline" cx="0" cy="0" r="25" fill="#F79767" stroke="#f36924" stroke-width="2px"/><text text-anchor="middle" pointer-events="none" font-family="sans-serif" dy="1.5625" font-size="25" fill="#FFFFFF"/><text text-anchor="middle" pointer-events="none" y="5" font-size="10px" fill="#FFFFFF" font-family="sans-serif"> ANAPC1</text></g><g class="node" transform="translate(188.50812649772175,-105.42867618633)"><circle class="outline" cx="0" cy="0" r="25" fill="#F79767" stroke="#f36924" stroke-width="2px"/><text text-anchor="middle" pointer-events="none" font-family="sans-serif" dy="1.5625" font-size="25" fill="#FFFFFF"/><text text-anchor="middle" pointer-events="none" y="5" font-size="10px" fill="#FFFFFF" font-family="sans-serif"> IL1R1</text></g><g class="node" transform="translate(71.90306284993727,23.27721509779495)"><circle class="outline" cx="0" cy="0" r="25" fill="#F79767" stroke="#f36924" stroke-width="2px"/><text text-anchor="middle" pointer-events="none" font-family="sans-serif" dy="1.5625" font-size="25" fill="#FFFFFF"/><text text-anchor="middle" pointer-events="none" y="5" font-size="10px" fill="#FFFFFF" font-family="sans-serif"> TGFB2</text></g><g class="node" transform="translate(129.29795514296362,-95.83131291777688)"><circle class="outline" cx="0" cy="0" r="25" fill="#F79767" stroke="#f36924" stroke-width="2px"/><text text-anchor="middle" pointer-events="none" font-family="sans-serif" dy="1.5625" font-size="25" fill="#FFFFFF"/><text text-anchor="middle" pointer-events="none" y="5" font-size="10px" fill="#FFFFFF" font-family="sans-serif"> TGFBR2</text></g><g class="node" transform="translate(72.99331255334494,-75.08536519199681)"><circle class="outline" cx="0" cy="0" r="25" fill="#F79767" stroke="#f36924" stroke-width="2px"/><text text-anchor="middle" pointer-events="none" font-family="sans-serif" dy="1.5625" font-size="25" fill="#FFFFFF"/><text text-anchor="middle" pointer-events="none" y="5" font-size="10px" fill="#FFFFFF" font-family="sans-serif"> IL1R2</text></g><g class="node" transform="translate(15.553880112217822,93.52352705204262)"><circle class="outline" cx="0" cy="0" r="25" fill="#F79767" stroke="#f36924" stroke-width="2px"/><text text-anchor="middle" pointer-events="none" font-family="sans-serif" dy="1.5625" font-size="25" fill="#FFFFFF"/><text text-anchor="middle" pointer-events="none" y="5" font-size="10px" fill="#FFFFFF" font-family="sans-serif"> VCAM1</text></g><g class="node" transform="translate(36.54793358075561,-27.424600834817138)"><circle class="outline" cx="0" cy="0" r="25" fill="#F79767" stroke="#f36924" stroke-width="2px"/><text text-anchor="middle" pointer-events="none" font-family="sans-serif" dy="1.5625" font-size="25" fill="#FFFFFF"/><text text-anchor="middle" pointer-events="none" y="5" font-size="10px" fill="#FFFFFF" font-family="sans-serif"> FDPS</text></g><g class="node" transform="translate(62.1942742280868,133.20700810706072)"><circle class="outline" cx="0" cy="0" r="25" fill="#F79767" stroke="#f36924" stroke-width="2px"/><text text-anchor="middle" pointer-events="none" font-family="sans-serif" dy="1.5625" font-size="25" fill="#FFFFFF"/><text text-anchor="middle" pointer-events="none" y="5" font-size="10px" fill="#FFFFFF" font-family="sans-serif"> ELK4</text></g><g class="node" transform="translate(12.810651592918028,33.58899191475512)"><circle class="outline" cx="0" cy="0" r="25" fill="#F79767" stroke="#f36924" stroke-width="2px"/><text text-anchor="middle" pointer-events="none" font-family="sans-serif" dy="1.5625" font-size="25" fill="#FFFFFF"/><text text-anchor="middle" pointer-events="none" y="5" font-size="10px" fill="#FFFFFF" font-family="sans-serif"> CDC20</text></g><g class="node" transform="translate(12.160610134754103,166.2714178124785)"><circle class="outline" cx="0" cy="0" r="25" fill="#F79767" stroke="#f36924" stroke-width="2px"/><text text-anchor="middle" pointer-events="none" font-family="sans-serif" dy="1.5625" font-size="25" fill="#FFFFFF"/><text text-anchor="middle" pointer-events="none" y="5" font-size="10px" fill="#FFFFFF" font-family="sans-serif"> XPO1</text></g><g class="node" transform="translate(107.90912306888833,195.8843902057947)"><circle class="outline" cx="0" cy="0" r="25" fill="#F79767" stroke="#f36924" stroke-width="2px"/><text text-anchor="middle" pointer-events="none" font-family="sans-serif" dy="1.5625" font-size="25" fill="#FFFFFF"/><text text-anchor="middle" pointer-events="none" y="5" font-size="10px" fill="#FFFFFF" font-family="sans-serif"> ATF3</text></g><g class="node" transform="translate(-254.26194215073045,245.64885940768755)"><circle class="outline" cx="0" cy="0" r="25" fill="#F79767" stroke="#f36924" stroke-width="2px"/><text text-anchor="middle" pointer-events="none" font-family="sans-serif" dy="1.5625" font-size="25" fill="#FFFFFF"/><text text-anchor="middle" pointer-events="none" y="5" font-size="10px" fill="#FFFFFF" font-family="sans-serif"> MEN1</text></g><g class="node" transform="translate(-367.6631267354557,171.910641133933)"><circle class="outline" cx="0" cy="0" r="25" fill="#F79767" stroke="#f36924" stroke-width="2px"/><text text-anchor="middle" pointer-events="none" font-family="sans-serif" dy="1.5625" font-size="25" fill="#FFFFFF"/><text text-anchor="middle" pointer-events="none" y="5" font-size="10px" fill="#FFFFFF" font-family="sans-serif"> MYB</text></g><g class="node" transform="translate(-321.1157022756026,228.33251464057804)"><circle class="outline" cx="0" cy="0" r="25" fill="#F79767" stroke="#f36924" stroke-width="2px"/><text text-anchor="middle" pointer-events="none" font-family="sans-serif" dy="1.5625" font-size="25" fill="#FFFFFF"/><text text-anchor="middle" pointer-events="none" y="5" font-size="10px" fill="#FFFFFF" font-family="sans-serif"> NF1</text></g><g class="node" transform="translate(-288.29661164765923,-15.288319198162965)"><circle class="outline" cx="0" cy="0" r="25" fill="#F79767" stroke="#f36924" stroke-width="2px"/><text text-anchor="middle" pointer-events="none" font-family="sans-serif" dy="1.5625" font-size="25" fill="#FFFFFF"/><text text-anchor="middle" pointer-events="none" y="5" font-size="10px" fill="#FFFFFF" font-family="sans-serif"> RB1</text></g><g class="node" transform="translate(-379.61423110440643,94.5767106780767)"><circle class="outline" cx="0" cy="0" r="25" fill="#F79767" stroke="#f36924" stroke-width="2px"/><text text-anchor="middle" pointer-events="none" font-family="sans-serif" dy="1.5625" font-size="25" fill="#FFFFFF"/><text text-anchor="middle" pointer-events="none" y="5" font-size="10px" fill="#FFFFFF" font-family="sans-serif"> GRIN2A</text></g><g class="node" transform="translate(-349.8371226084538,23.57186547981672)"><circle class="outline" cx="0" cy="0" r="25" fill="#F79767" stroke="#f36924" stroke-width="2px"/><text text-anchor="middle" pointer-events="none" font-family="sans-serif" dy="1.5625" font-size="25" fill="#FFFFFF"/><text text-anchor="middle" pointer-events="none" y="5" font-size="10px" fill="#FFFFFF" font-family="sans-serif"> BRAF</text></g></g></svg>