<svg xmlns="http://www.w3.org/2000/svg" width="281.418212890625" height="238.29013061523438" viewBox="-83.44497680664062 -24.575450897216797 281.418212890625 238.29013061523438"><title>Neo4j Graph Visualization</title><desc>Created using Neo4j (http://www.neo4j.com/)</desc><g class="layer relationships"><g class="relationship" transform="translate(74.28919886520153 83.92658120627341) rotate(319.9812993336059)"><path class="outline" fill="#A5ABB6" stroke="none" d="M 25 0.5 L 42.6437327972962 0.5 L 42.6437327972962 -0.5 L 25 -0.5 Z M 73.9913890472962 0.5 L 91.6351218445924 0.5 L 91.6351218445924 3.5 L 98.6351218445924 0 L 91.6351218445924 -3.5 L 91.6351218445924 -0.5 L 73.9913890472962 -0.5 Z"/><text text-anchor="middle" pointer-events="none" font-size="8px" fill="#000000" x="58.3175609222962" y="3" font-family="sans-serif">causes</text></g><g class="relationship" transform="translate(74.28919886520153 83.92658120627341) rotate(180.91476771561878)"><path class="outline" fill="#A5ABB6" stroke="none" d="M 25 0.5 L 49.648728138780015 0.5 L 49.648728138780015 -0.5 L 25 -0.5 Z M 72.10185313878002 0.5 L 96.75058127756003 0.5 L 96.75058127756003 3.5 L 103.75058127756003 0 L 96.75058127756003 -3.5 L 96.75058127756003 -0.5 L 72.10185313878002 -0.5 Z"/><text text-anchor="middle" pointer-events="none" font-size="8px" fill="#000000" x="60.875290638780015" y="3" transform="rotate(180 60.875290638780015 0)" font-family="sans-serif">is_in</text></g><g class="relationship" transform="translate(74.28919886520153 83.92658120627341) rotate(418.80790833408213)"><path class="outline" fill="#A5ABB6" stroke="none" d="M 25 0.5 L 45.96116484479214 0.5 L 45.96116484479214 -0.5 L 25 -0.5 Z M 64.85960234479214 0.5 L 85.82076718958427 0.5 L 85.82076718958427 3.5 L 92.82076718958427 0 L 85.82076718958427 -3.5 L 85.82076718958427 -0.5 L 64.85960234479214 -0.5 Z"/><text text-anchor="middle" pointer-events="none" font-size="8px" fill="#000000" x="55.41038359479214" y="3" font-family="sans-serif">has</text></g></g><g class="layer nodes"><g class="node" transform="translate(135.30962769075387,184.71467795925273)"><circle class="outline" cx="0" cy="0" r="25" fill="#D9C8AE" stroke="#c0a378" stroke-width="2px"/><text text-anchor="middle" pointer-events="none" font-family="sans-serif" dy="1.5625" font-size="25" fill="#604A0E"/><text text-anchor="middle" pointer-events="none" y="5" font-size="10px" fill="#604A0E" font-family="sans-serif"> Variant</text></g><g class="node" transform="translate(168.9732534470267,4.424548770157916)"><circle class="outline" cx="0" cy="0" r="25" fill="#57C7E3" stroke="#23b3d7" stroke-width="2px"/><text text-anchor="middle" pointer-events="none" font-family="sans-serif" dy="1.5625" font-size="25" fill="#FFFFFF"/><text text-anchor="middle" pointer-events="none" y="5" font-size="10px" fill="#FFFFFF" font-family="sans-serif"> Phenoty…</text></g><g class="node" transform="translate(74.28919886520153,83.92658120627341)"><circle class="outline" cx="0" cy="0" r="25" fill="#F79767" stroke="#f36924" stroke-width="2px"/><text text-anchor="middle" pointer-events="none" font-family="sans-serif" dy="1.5625" font-size="25" fill="#FFFFFF"/><text text-anchor="middle" pointer-events="none" y="5" font-size="10px" fill="#FFFFFF" font-family="sans-serif"> Gene</text></g><g class="node" transform="translate(-54.4449732515736,81.87107428142299)"><circle class="outline" cx="0" cy="0" r="25" fill="#F16667" stroke="#eb2728" stroke-width="2px"/><text text-anchor="middle" pointer-events="none" font-family="sans-serif" dy="1.5625" font-size="25" fill="#FFFFFF"/><text text-anchor="middle" pointer-events="none" y="5" font-size="10px" fill="#FFFFFF" font-family="sans-serif"> Pathway</text></g></g></svg>